# xmcd CD database file
#
# Track frame offsets:
#	150
#	14019
#	28228
#	40559
#	53071
#	66611
#	80528
#	94803
#	106896
#	121335
#	135009
#	147421
#	160067
#	174715
#
# Disc length: 2520 seconds
#
# Revision: 0
# Processed by: cddbd v1.4PL0 Copyright (c) Steve Scherf et al.
# Submitted via: CDex 1.50Beta7
#
DISCID=bb09d60e
DTITLE=Louis Prima - Jump 'n' Boogie
DYEAR=1998
DGENRE=Jazz
TTITLE0=Hey! Ba-Ba-Re-Bop
TTITLE1=The Lip
TTITLE2=Just A Gigolo
TTITLE3=Boogie In Chicago
TTITLE4=Baby Won't You Please Come Home
TTITLE5=You Won't Be Satisfied (Until You Break  My Heart)
TTITLE6=Chinatown, My Chinatown
TTITLE7=A Flea And A Fly In a Flue
TTITLE8=Angelina
TTITLE9=Sing, Sing, Sing
TTITLE10=(Does Your Mother Know You're Out) Cecilia
TTITLE11=Brooklyn Boogie
TTITLE12=It Takes A Long, Tall, Brown-Skinned Gal
TTITLE13=Caldonia (What akes Your Big Head So Hard)
EXTD=YEAR: 1998
EXTT0=
EXTT1=
EXTT2=
EXTT3=
EXTT4=
EXTT5=
EXTT6=
EXTT7=
EXTT8=
EXTT9=
EXTT10=
EXTT11=
EXTT12=
EXTT13=
PLAYORDER=
